<svg width="20" height="20" viewBox="0 0 20 20" fill="none" xmlns="http://www.w3.org/2000/svg">
<path d="M8.68547 1.22253C8.42697 1.2226 8.17788 1.31956 7.98736 1.49427C7.79684 1.66898 7.67872 1.90876 7.6563 2.16628C7.49601 3.99172 7.46746 5.82633 7.57089 7.65587C7.3136 7.66941 7.05735 7.68712 6.80006 7.70482L5.24797 7.81837C5.11128 7.82838 4.97953 7.87372 4.86562 7.94993C4.7517 8.02614 4.65952 8.13062 4.5981 8.25314C4.53668 8.37567 4.50812 8.51204 4.51522 8.64892C4.52232 8.78579 4.56483 8.91848 4.6386 9.03399C5.74473 10.7654 7.17005 12.2706 8.8386 13.4694L9.46047 13.9163C9.61772 14.0292 9.80645 14.09 10.0001 14.09C10.1937 14.09 10.3824 14.0292 10.5396 13.9163L11.1615 13.4694C12.83 12.2706 14.2554 10.7654 15.3615 9.03399C15.4353 8.91848 15.4778 8.78579 15.4849 8.64892C15.492 8.51204 15.4634 8.37567 15.402 8.25314C15.3406 8.13062 15.2484 8.02614 15.1345 7.94993C15.0206 7.87372 14.8888 7.82838 14.7521 7.81837L13.2001 7.70482C12.9433 7.68625 12.6863 7.66993 12.4292 7.65587C12.533 5.82635 12.5048 3.99174 12.3448 2.16628C12.3224 1.90858 12.2042 1.66865 12.0134 1.49392C11.8227 1.31918 11.5733 1.22234 11.3146 1.22253H8.68547Z" fill="#FFAC2F"/>
<path fill-rule="evenodd" clip-rule="evenodd" d="M2.70825 14.09C2.91545 14.09 3.11417 14.1723 3.26068 14.3188C3.40719 14.4653 3.4895 14.664 3.4895 14.8712V16.9545C3.4895 17.0983 3.60617 17.215 3.74992 17.215H16.2499C16.319 17.215 16.3852 17.1875 16.4341 17.1387C16.4829 17.0899 16.5103 17.0236 16.5103 16.9545V14.8712C16.5103 14.664 16.5926 14.4653 16.7392 14.3188C16.8857 14.1723 17.0844 14.09 17.2916 14.09C17.4988 14.09 17.6975 14.1723 17.844 14.3188C17.9905 14.4653 18.0728 14.664 18.0728 14.8712V16.9545C18.0728 17.438 17.8808 17.9017 17.5389 18.2435C17.1971 18.5854 16.7334 18.7775 16.2499 18.7775H3.74992C3.26645 18.7775 2.80279 18.5854 2.46092 18.2435C2.11906 17.9017 1.927 17.438 1.927 16.9545V14.8712C1.927 14.664 2.00931 14.4653 2.15582 14.3188C2.30234 14.1723 2.50105 14.09 2.70825 14.09Z" fill="#FFAC2F"/>
</svg>
