<svg width="128" height="94" viewBox="0 0 128 94" fill="none" xmlns="http://www.w3.org/2000/svg">
<ellipse cx="64" cy="46.6898" rx="57.9261" ry="35.5216" transform="rotate(-11.8851 64 46.6898)" fill="#FFFCEB"/>
<path d="M42.2563 54.7638C40.4167 56.6741 37.8164 57.6293 34.4556 57.6293C30.2457 57.6293 27.6986 56.0904 26.8141 53.0126C26.5311 52.0928 26.3896 51.1199 26.3896 50.094C26.3896 49.0681 26.4958 48.0244 26.708 46.9631L29.2021 33.6967L39.9745 32.6354L37.0558 48.0775C36.9851 48.5374 36.8966 49.015 36.7905 49.5103C36.6844 50.0055 36.6313 50.5185 36.6313 51.0492C36.6313 51.5445 36.7198 51.969 36.8966 52.3228C37.0735 52.6411 37.2858 52.9065 37.5334 53.1187C37.958 53.4018 38.5417 53.5433 39.2846 53.5433C40.0629 53.5433 40.7704 53.0834 41.4072 52.1636C42.0794 51.2437 42.5747 49.9879 42.8931 48.3959L45.8117 33.6967L56.2656 32.6354L52.2857 53.4902C50.9767 60.2826 48.9779 65.0232 46.2893 67.7118C44.9096 69.0915 43.3176 70.0467 41.5134 70.5774C39.7445 71.1434 37.7103 71.4264 35.4108 71.4264C31.6962 71.4264 28.7776 70.8427 26.655 69.6752C24.5323 68.5078 23.471 66.9512 23.471 65.0055C23.471 63.555 24.0194 62.4052 25.116 61.5562C26.2127 60.7425 27.6101 60.3357 29.3082 60.3357C30.7941 60.3357 32.103 60.6541 33.2351 61.2909C33.9073 61.68 34.4025 62.1222 34.7209 62.6175C33.9073 63.325 33.5004 64.2625 33.5004 65.43C33.5004 66.9866 34.208 67.7649 35.6231 67.7649C37.958 67.7649 39.7976 65.0762 41.1419 59.6989C41.531 58.1069 41.9025 56.4619 42.2563 54.7638Z" fill="#329DFF"/>
<path d="M50.2797 64.1653C52.1193 64.0237 54.7461 67.8066 56.8581 64.1653C57.884 62.3964 58.098 59.3716 58.7702 56.1169L62.43 33.6967L73.0962 32.6354L68.5856 55.8782C67.4181 61.7861 65.9323 65.713 64.1281 67.6587C63.1729 68.7201 62.2637 69.516 60.8928 69.914C59.522 70.312 58.2838 70.4005 56.8581 70.312C53.8864 70.312 49.8375 66.5974 50.2797 64.1653ZM63.279 26.3205C63.279 24.9408 63.845 23.8795 64.9771 23.1366C66.1446 22.3937 67.5596 22.0222 69.2224 22.0222C70.8851 22.0222 72.2117 22.3937 73.2023 23.1366C74.2282 23.8795 74.7412 24.9408 74.7412 26.3205C74.7412 27.7002 74.1752 28.7439 73.0431 29.4514C71.9464 30.159 70.5667 30.5127 68.904 30.5127C67.2412 30.5127 65.8792 30.159 64.8179 29.4514C63.792 28.7439 63.279 27.7002 63.279 26.3205Z" fill="#329DFF"/>
<path d="M88.7178 35.607C90.6282 33.6259 93.5999 32.6354 97.6329 32.6354C99.8616 32.6354 101.577 33.2368 102.78 34.4396C104.018 35.607 104.638 37.2875 104.638 39.4808C104.638 41.6388 104.018 43.4962 102.78 45.0527C101.577 46.574 99.8439 47.653 97.5798 48.2898C97.7567 48.9973 97.9689 49.7225 98.2166 50.4654L98.9595 52.5881C99.6317 54.3923 100.233 55.6128 100.764 56.2496C101.294 56.8864 101.913 57.3109 102.621 57.5232C102.232 58.9737 101.33 60.088 99.9147 60.8663C98.7826 61.5031 97.4383 61.8215 95.8817 61.8215C91.318 61.8215 88.7355 58.3015 88.1341 51.2614C88.028 50.2709 87.9749 49.2803 87.9749 48.2898C89.7437 47.7945 91.2473 46.7155 92.4855 45.0527C93.7237 43.39 94.3428 41.5858 94.3428 39.64C94.3428 37.6943 93.6529 36.7214 92.2732 36.7214C91.2826 36.7214 90.3982 37.2698 89.6199 38.3665C88.8416 39.4632 88.2756 40.949 87.9218 42.824L84.4195 60.7602L73.7002 61.8215L81.1294 23.6142L91.7956 22.5529L90.5751 28.8677C90.0444 31.8394 89.4254 34.0858 88.7178 35.607Z" fill="#329DFF"/>
<ellipse cx="69.1623" cy="26.5329" rx="6.36789" ry="4.59903" fill="#FFAC2F"/>
</svg>
