<svg width="47" height="48" viewBox="0 0 47 48" fill="none" xmlns="http://www.w3.org/2000/svg">
<path d="M16.6909 8.61875C19.6472 3.31741 21.1242 0.666748 23.3339 0.666748C25.5435 0.666748 27.0205 3.31741 29.9769 8.61875L30.7422 9.99075C31.5822 11.4981 32.0022 12.2517 32.6555 12.7487C33.3089 13.2457 34.1255 13.4301 35.7589 13.7987L37.2429 14.1347C42.9829 15.4344 45.8505 16.0831 46.5342 18.2787C47.2155 20.4721 45.2602 22.7611 41.3472 27.3367L40.3345 28.5197C39.2239 29.8194 38.6662 30.4704 38.4165 31.2731C38.1669 32.0781 38.2509 32.9461 38.4189 34.6797L38.5729 36.2594C39.1632 42.3657 39.4595 45.4177 37.6722 46.7734C35.8849 48.1314 33.1969 46.8924 27.8255 44.4191L26.4325 43.7797C24.9065 43.0751 24.1435 42.7251 23.3339 42.7251C22.5242 42.7251 21.7612 43.0751 20.2329 43.7797L18.8445 44.4191C13.4709 46.8924 10.7829 48.1291 8.99788 46.7757C7.20821 45.4177 7.50455 42.3657 8.09488 36.2594L8.24888 34.6821C8.41688 32.9461 8.50088 32.0781 8.24888 31.2754C8.00155 30.4704 7.44388 29.8194 6.33322 28.5221L5.32055 27.3367C1.40755 22.7634 -0.547785 20.4744 0.133548 18.2787C0.817215 16.0831 3.68721 15.4321 9.42721 14.1347L10.9112 13.7987C12.5422 13.4301 13.3565 13.2457 14.0122 12.7487C14.6655 12.2517 15.0855 11.4981 15.9255 9.99075L16.6909 8.61875Z" fill="#FFAC2F"/>
</svg>
